<mxfile host="65bd71144e">
    <diagram id="izr5ojlLVmo8zyCvxxbJ" name="Page-1">
        <mxGraphModel dx="821" dy="435" grid="1" gridSize="10" guides="1" tooltips="1" connect="1" arrows="1" fold="1" page="1" pageScale="1" pageWidth="850" pageHeight="300" math="1" shadow="0">
            <root>
                <mxCell id="0"/>
                <mxCell id="1" parent="0"/>
                <mxCell id="591" value="" style="endArrow=none;dashed=1;html=1;dashPattern=1 3;strokeWidth=2;" parent="1" edge="1">
                    <mxGeometry width="50" height="50" relative="1" as="geometry">
                        <mxPoint x="280" y="270" as="sourcePoint"/>
                        <mxPoint x="280" y="30" as="targetPoint"/>
                    </mxGeometry>
                </mxCell>
                <mxCell id="592" value="" style="endArrow=none;dashed=1;html=1;dashPattern=1 3;strokeWidth=2;" parent="1" edge="1">
                    <mxGeometry width="50" height="50" relative="1" as="geometry">
                        <mxPoint x="310" y="270" as="sourcePoint"/>
                        <mxPoint x="310" y="30" as="targetPoint"/>
                    </mxGeometry>
                </mxCell>
                <mxCell id="593" value="sgns" style="text;html=1;align=center;verticalAlign=middle;resizable=0;points=[];autosize=1;strokeColor=none;fillColor=none;fontSize=12;" parent="1" vertex="1">
                    <mxGeometry x="340" y="235" width="50" height="30" as="geometry"/>
                </mxCell>
                <mxCell id="594" value="$$E_{max}$$" style="text;html=1;align=center;verticalAlign=middle;resizable=0;points=[];autosize=1;strokeColor=none;fillColor=none;fontSize=12;" parent="1" vertex="1">
                    <mxGeometry x="300" y="110.04999999999995" width="100" height="30" as="geometry"/>
                </mxCell>
                <mxCell id="595" value="mans" style="text;html=1;align=center;verticalAlign=middle;resizable=0;points=[];autosize=1;strokeColor=none;fillColor=none;fontSize=12;" parent="1" vertex="1">
                    <mxGeometry x="340" y="195.5" width="50" height="30" as="geometry"/>
                </mxCell>
                <mxCell id="596" value="BF16" style="text;html=1;align=center;verticalAlign=middle;resizable=0;points=[];autosize=1;strokeColor=none;fillColor=none;" parent="1" vertex="1">
                    <mxGeometry x="140" y="109.99999999999994" width="50" height="30" as="geometry"/>
                </mxCell>
                <mxCell id="597" style="edgeStyle=orthogonalEdgeStyle;html=1;entryX=0;entryY=0.5;entryDx=0;entryDy=0;fontSize=12;strokeWidth=2;" parent="1" source="601" target="605" edge="1">
                    <mxGeometry relative="1" as="geometry">
                        <Array as="points">
                            <mxPoint x="230" y="150"/>
                            <mxPoint x="230" y="110"/>
                        </Array>
                    </mxGeometry>
                </mxCell>
                <mxCell id="598" style="edgeStyle=orthogonalEdgeStyle;html=1;strokeWidth=2;entryX=0.5;entryY=1;entryDx=0;entryDy=0;" parent="1" source="601" target="606" edge="1">
                    <mxGeometry relative="1" as="geometry">
                        <Array as="points">
                            <mxPoint x="340" y="150"/>
                            <mxPoint x="340" y="260"/>
                            <mxPoint x="600" y="260"/>
                            <mxPoint x="600" y="220"/>
                        </Array>
                        <mxPoint x="710" y="240" as="targetPoint"/>
                    </mxGeometry>
                </mxCell>
                <mxCell id="599" style="edgeStyle=orthogonalEdgeStyle;html=1;entryX=0.5;entryY=0;entryDx=0;entryDy=0;strokeWidth=2;" parent="1" source="601" target="624" edge="1">
                    <mxGeometry relative="1" as="geometry">
                        <Array as="points">
                            <mxPoint x="420" y="150"/>
                            <mxPoint x="420" y="180"/>
                            <mxPoint x="450" y="180"/>
                        </Array>
                    </mxGeometry>
                </mxCell>
                <mxCell id="600" style="edgeStyle=orthogonalEdgeStyle;html=1;entryX=0;entryY=0.5;entryDx=0;entryDy=0;strokeWidth=2;elbow=vertical;" parent="1" source="601" target="624" edge="1">
                    <mxGeometry relative="1" as="geometry">
                        <Array as="points">
                            <mxPoint x="340" y="150"/>
                            <mxPoint x="340" y="220"/>
                        </Array>
                    </mxGeometry>
                </mxCell>
                <mxCell id="601" value="&amp;nbsp; &amp;nbsp;Input [k]" style="shape=offPageConnector;whiteSpace=wrap;html=1;rotation=0;direction=north;labelPosition=center;verticalLabelPosition=middle;align=left;verticalAlign=middle;size=0.16666666666666666;" parent="1" vertex="1">
                    <mxGeometry x="140" y="140" width="80" height="20" as="geometry"/>
                </mxCell>
                <mxCell id="602" style="edgeStyle=orthogonalEdgeStyle;html=1;entryX=0;entryY=0.5;entryDx=0;entryDy=0;fontSize=12;strokeWidth=2;" parent="1" target="613" edge="1">
                    <mxGeometry relative="1" as="geometry">
                        <mxPoint x="555" y="165.04999999999995" as="targetPoint"/>
                        <mxPoint x="240" y="150.04999999999995" as="sourcePoint"/>
                        <Array as="points">
                            <mxPoint x="310" y="150.04999999999995"/>
                            <mxPoint x="310" y="150.04999999999995"/>
                        </Array>
                    </mxGeometry>
                </mxCell>
                <mxCell id="603" value="exps" style="text;html=1;align=center;verticalAlign=middle;resizable=0;points=[];autosize=1;strokeColor=none;fillColor=none;fontSize=12;" parent="1" vertex="1">
                    <mxGeometry x="190" y="85.04999999999995" width="50" height="30" as="geometry"/>
                </mxCell>
                <mxCell id="604" style="edgeStyle=orthogonalEdgeStyle;html=1;entryX=0;entryY=0.75;entryDx=0;entryDy=0;" parent="1" source="605" target="628" edge="1">
                    <mxGeometry relative="1" as="geometry"/>
                </mxCell>
                <mxCell id="605" value="$$\max_{i} (\text{exp}_i)$$" style="rounded=0;whiteSpace=wrap;html=1;" parent="1" vertex="1">
                    <mxGeometry x="250" y="90" width="80" height="39.95" as="geometry"/>
                </mxCell>
                <mxCell id="606" value="&lt;span style=&quot;text-align: left;&quot;&gt;Values [k]&amp;nbsp; &amp;nbsp;&lt;/span&gt;" style="shape=offPageConnector;whiteSpace=wrap;html=1;rotation=0;direction=south;labelPosition=center;verticalLabelPosition=middle;align=right;verticalAlign=middle;size=0.16666666666666666;" parent="1" vertex="1">
                    <mxGeometry x="630" y="210" width="80" height="20" as="geometry"/>
                </mxCell>
                <mxCell id="607" value="&lt;span style=&quot;text-align: left;&quot;&gt;Scale&amp;nbsp; &amp;nbsp;&lt;/span&gt;" style="shape=offPageConnector;whiteSpace=wrap;html=1;rotation=0;direction=south;labelPosition=center;verticalLabelPosition=middle;align=right;verticalAlign=middle;size=0.16666666666666666;" parent="1" vertex="1">
                    <mxGeometry x="630" y="110" width="80" height="20" as="geometry"/>
                </mxCell>
                <mxCell id="608" style="edgeStyle=orthogonalEdgeStyle;html=1;entryX=0.5;entryY=1;entryDx=0;entryDy=0;strokeWidth=2;" parent="1" source="609" target="606" edge="1">
                    <mxGeometry relative="1" as="geometry">
                        <Array as="points">
                            <mxPoint x="620" y="220"/>
                            <mxPoint x="620" y="220"/>
                        </Array>
                    </mxGeometry>
                </mxCell>
                <mxCell id="609" value="u_fp_rnd" style="rounded=0;whiteSpace=wrap;html=1;" parent="1" vertex="1">
                    <mxGeometry x="520" y="207.5" width="60" height="25" as="geometry"/>
                </mxCell>
                <mxCell id="610" value="E8M0" style="text;html=1;align=center;verticalAlign=middle;resizable=0;points=[];autosize=1;strokeColor=none;fillColor=none;fontSize=12;" parent="1" vertex="1">
                    <mxGeometry x="660" y="80.00000000000006" width="50" height="30" as="geometry"/>
                </mxCell>
                <mxCell id="611" value="FP6" style="text;html=1;align=center;verticalAlign=middle;resizable=0;points=[];autosize=1;strokeColor=none;fillColor=none;fontSize=12;" parent="1" vertex="1">
                    <mxGeometry x="660" y="180" width="50" height="30" as="geometry"/>
                </mxCell>
                <mxCell id="612" style="edgeStyle=orthogonalEdgeStyle;html=1;entryX=0.5;entryY=0;entryDx=0;entryDy=0;strokeWidth=2;" parent="1" source="613" target="609" edge="1">
                    <mxGeometry relative="1" as="geometry"/>
                </mxCell>
                <mxCell id="613" value="-" style="ellipse;whiteSpace=wrap;html=1;aspect=fixed;fontSize=24;" parent="1" vertex="1">
                    <mxGeometry x="445" y="135" width="30" height="30" as="geometry"/>
                </mxCell>
                <mxCell id="614" value="exps" style="text;html=1;align=center;verticalAlign=middle;resizable=0;points=[];autosize=1;strokeColor=none;fillColor=none;fontSize=12;" parent="1" vertex="1">
                    <mxGeometry x="390" y="124.96999999999991" width="50" height="30" as="geometry"/>
                </mxCell>
                <mxCell id="615" value="" style="endArrow=none;dashed=1;html=1;dashPattern=1 3;strokeWidth=2;" parent="1" edge="1">
                    <mxGeometry width="50" height="50" relative="1" as="geometry">
                        <mxPoint x="490" y="270" as="sourcePoint"/>
                        <mxPoint x="490" y="30" as="targetPoint"/>
                    </mxGeometry>
                </mxCell>
                <mxCell id="616" value="" style="endArrow=none;dashed=1;html=1;dashPattern=1 3;strokeWidth=2;" parent="1" edge="1">
                    <mxGeometry width="50" height="50" relative="1" as="geometry">
                        <mxPoint x="610" y="270" as="sourcePoint"/>
                        <mxPoint x="610" y="30" as="targetPoint"/>
                    </mxGeometry>
                </mxCell>
                <mxCell id="617" style="edgeStyle=orthogonalEdgeStyle;html=1;entryX=0.5;entryY=1;entryDx=0;entryDy=0;" parent="1" source="618" target="607" edge="1">
                    <mxGeometry relative="1" as="geometry"/>
                </mxCell>
                <mxCell id="618" value="NaN/Inf?" style="rounded=0;whiteSpace=wrap;html=1;strokeWidth=1;" parent="1" vertex="1">
                    <mxGeometry x="510" y="110" width="60" height="20" as="geometry"/>
                </mxCell>
                <mxCell id="619" style="edgeStyle=orthogonalEdgeStyle;html=1;entryX=0;entryY=0.25;entryDx=0;entryDy=0;exitX=0.5;exitY=1;exitDx=0;exitDy=0;" parent="1" source="631" target="628" edge="1">
                    <mxGeometry relative="1" as="geometry">
                        <mxPoint x="335" y="70" as="sourcePoint"/>
                    </mxGeometry>
                </mxCell>
                <mxCell id="620" style="edgeStyle=orthogonalEdgeStyle;html=1;entryX=0.5;entryY=0;entryDx=0;entryDy=0;strokeWidth=1;elbow=vertical;exitX=1;exitY=0.5;exitDx=0;exitDy=0;" parent="1" source="631" target="630" edge="1">
                    <mxGeometry relative="1" as="geometry">
                        <mxPoint x="380" y="55" as="sourcePoint"/>
                    </mxGeometry>
                </mxCell>
                <mxCell id="621" value="" style="endArrow=none;dashed=1;html=1;dashPattern=1 3;strokeWidth=2;" parent="1" edge="1">
                    <mxGeometry width="50" height="50" relative="1" as="geometry">
                        <mxPoint x="400" y="270" as="sourcePoint"/>
                        <mxPoint x="400" y="30" as="targetPoint"/>
                    </mxGeometry>
                </mxCell>
                <mxCell id="622" value="$$d_{shift}$$" style="text;html=1;align=center;verticalAlign=middle;resizable=0;points=[];autosize=1;strokeColor=none;fillColor=none;" parent="1" vertex="1">
                    <mxGeometry x="485" y="150" width="90" height="30" as="geometry"/>
                </mxCell>
                <mxCell id="623" style="edgeStyle=orthogonalEdgeStyle;html=1;entryX=0;entryY=0.5;entryDx=0;entryDy=0;strokeWidth=2;" parent="1" source="624" target="609" edge="1">
                    <mxGeometry relative="1" as="geometry"/>
                </mxCell>
                <mxCell id="624" value="Denorm?" style="whiteSpace=wrap;html=1;" parent="1" vertex="1">
                    <mxGeometry x="420" y="210" width="60" height="20" as="geometry"/>
                </mxCell>
                <mxCell id="625" style="edgeStyle=orthogonalEdgeStyle;html=1;entryX=0.5;entryY=0;entryDx=0;entryDy=0;" parent="1" source="628" target="613" edge="1">
                    <mxGeometry relative="1" as="geometry">
                        <Array as="points">
                            <mxPoint x="420" y="100"/>
                            <mxPoint x="420" y="120"/>
                            <mxPoint x="460" y="120"/>
                        </Array>
                    </mxGeometry>
                </mxCell>
                <mxCell id="626" style="edgeStyle=orthogonalEdgeStyle;html=1;entryX=0;entryY=0.5;entryDx=0;entryDy=0;" parent="1" source="628" target="618" edge="1">
                    <mxGeometry relative="1" as="geometry">
                        <Array as="points">
                            <mxPoint x="420" y="100"/>
                            <mxPoint x="420" y="120"/>
                        </Array>
                    </mxGeometry>
                </mxCell>
                <mxCell id="627" style="edgeStyle=orthogonalEdgeStyle;html=1;entryX=0;entryY=0.5;entryDx=0;entryDy=0;" parent="1" source="628" target="630" edge="1">
                    <mxGeometry relative="1" as="geometry">
                        <Array as="points">
                            <mxPoint x="420" y="100"/>
                            <mxPoint x="420" y="90"/>
                        </Array>
                    </mxGeometry>
                </mxCell>
                <mxCell id="628" value="max" style="rounded=0;whiteSpace=wrap;html=1;" parent="1" vertex="1">
                    <mxGeometry x="355" y="80.05000000000001" width="35" height="40" as="geometry"/>
                </mxCell>
                <mxCell id="629" style="edgeStyle=orthogonalEdgeStyle;html=1;entryX=0.5;entryY=0;entryDx=0;entryDy=0;" parent="1" source="630" target="618" edge="1">
                    <mxGeometry relative="1" as="geometry">
                        <Array as="points">
                            <mxPoint x="540" y="90"/>
                        </Array>
                    </mxGeometry>
                </mxCell>
                <mxCell id="630" value="-" style="ellipse;whiteSpace=wrap;html=1;aspect=fixed;fontSize=24;" parent="1" vertex="1">
                    <mxGeometry x="445" y="75" width="30" height="30" as="geometry"/>
                </mxCell>
                <mxCell id="631" value="&lt;span style=&quot;&quot;&gt;$$2^{E-1}$$&lt;/span&gt;" style="rounded=1;whiteSpace=wrap;html=1;" parent="1" vertex="1">
                    <mxGeometry x="319" y="40" width="42" height="30" as="geometry"/>
                </mxCell>
            </root>
        </mxGraphModel>
    </diagram>
</mxfile>